<svg id="Capa_1" enable-background="new 0 0 512 512" height="512" viewBox="0 0 512 512" width="512" xmlns="http://www.w3.org/2000/svg"><g><path d="m107.824 415.497c-6.026 9.678-9.52 21.088-9.52 33.303 0 34.849 28.352 63.2 63.2 63.2h188.992c34.849 0 63.2-28.352 63.2-63.2 0-12.215-3.494-23.625-9.52-33.303l-148.176-32.539z" fill="#efc277"/><path d="m350.496 512c34.849 0 63.2-28.352 63.2-63.2 0-12.215-3.494-23.625-9.52-33.303l-148.176-32.539v129.042z" fill="#e9a43a"/><path d="m57.654 319.2c-5.986 9.655-9.454 21.028-9.454 33.2 0 34.849 28.352 63.2 63.2 63.2h289.2c34.849 0 63.2-28.352 63.2-63.2 0-12.172-3.468-23.545-9.454-33.2l-200.68-30z" fill="#f5dd90"/><path d="m256 289.549v126.052h144.6c34.849 0 63.2-28.352 63.2-63.2 0-12.172-3.468-23.545-9.454-33.2z" fill="#efc277"/><g><path d="m350.496 126.4h-188.992c-34.849 0-63.2-28.352-63.2-63.2s28.351-63.2 63.2-63.2h188.992c34.849 0 63.2 28.352 63.2 63.2s-28.351 63.2-63.2 63.2z" fill="#efc277"/></g><path d="m350.496 0h-94.496v126.4h94.496c34.849 0 63.2-28.352 63.2-63.2s-28.351-63.2-63.2-63.2z" fill="#e9a43a"/><path d="m454.346 192.8c5.986-9.655 9.454-21.028 9.454-33.2 0-34.849-28.352-63.199-63.2-63.199h-289.2c-34.849 0-63.2 28.352-63.2 63.2 0 12.171 3.467 23.544 9.453 33.199l188.347 11.658z" fill="#f5dd90"/><path d="m400.6 96.4h-144.6v107.498l198.346-11.098c5.986-9.655 9.454-21.028 9.454-33.2 0-34.849-28.352-63.2-63.2-63.2z" fill="#efc277"/><g><path d="m446.071 319.2h-380.142c-34.849 0-63.2-28.352-63.2-63.2s28.352-63.2 63.2-63.2h380.143c34.849 0 63.2 28.352 63.2 63.2s-28.352 63.2-63.201 63.2z" fill="#efc277"/></g><path d="m446.071 192.8h-190.071v126.4h190.071c34.849 0 63.2-28.352 63.2-63.2s-28.351-63.2-63.2-63.2z" fill="#e9a43a"/><g><path d="m256 415.601c-34.849 0-63.2-28.352-63.2-63.2s28.352-63.2 63.2-63.2 63.2 28.352 63.2 63.2-28.351 63.2-63.2 63.2z" fill="#404a4a"/></g><path d="m319.2 352.4c0-34.849-28.352-63.2-63.2-63.2v126.4c34.849.001 63.2-28.351 63.2-63.2z" fill="#323c3c"/></g></svg>